<?xml version="1.0" encoding="utf-8"?>
<!-- Generator: Adobe Illustrator 17.0.0, SVG Export Plug-In . SVG Version: 6.00 Build 0)  -->
<!DOCTYPE svg PUBLIC "-//W3C//DTD SVG 1.1//EN" "http://www.w3.org/Graphics/SVG/1.1/DTD/svg11.dtd">
<svg version="1.1" id="Livello_1" xmlns="http://www.w3.org/2000/svg" xmlns:xlink="http://www.w3.org/1999/xlink" x="0px" y="0px"
	 width="841.89px" height="595.28px" viewBox="0 0 841.89 595.28" enable-background="new 0 0 841.89 595.28" xml:space="preserve">
<g opacity="0.25">
	<path fill="#F9F9FA" d="M385.995,284.627c12.012-7.537,27.652,5.41,34.74,19.318c3.035-5.314,4.778-11.461,4.778-18.018
		c0-20.102-16.296-36.398-36.398-36.398c-20.102,0-36.398,16.296-36.398,36.398c0,19.694,15.643,35.724,35.18,36.367
		C382.356,307.861,377.675,289.847,385.995,284.627z"/>
	<path fill="#F9F9FA" d="M400.907,320.361c7.803-2.672,14.406-7.917,18.802-14.727C403.873,292.094,383.375,286.419,400.907,320.361
		z"/>
	<path fill="#F9F9FA" d="M441.674,260.813c2.646,9.032,9.589,17.821,33.667,26.146c1.3,4.144,1.82,8.595,3.12,12.521
		c-30.352-7.057-41.798-25.779-46.113-41.839l-8.791-2.989l-1.21,3.558c5.303,6.69,8.478,15.143,8.478,24.343
		c0,18.377-12.638,33.797-29.695,38.056l-0.094,0.275l68.889,23.424l22.521-66.232L441.674,260.813z"/>
</g>
</svg>
